<svg width="88" height="88" viewBox="0 0 88 88" fill="none" xmlns="http://www.w3.org/2000/svg">
<g clip-path="url(#clip0_9_12)">
<path d="M21.2188 6.83203C22.4393 6.82704 22.4393 6.82704 23.6844 6.82195C25.406 6.81688 27.1276 6.81454 28.8491 6.8147C31.4894 6.81251 34.1293 6.79434 36.7695 6.77539C38.4401 6.77246 40.1107 6.77047 41.7812 6.76953C42.574 6.76235 43.3667 6.75516 44.1835 6.74776C49.7712 6.77117 49.7712 6.77117 52 9C51.4444 13.5556 51.4444 13.5556 50 15C47.4814 15.1599 44.9864 15.2594 42.4648 15.3164C41.7975 15.3351 41.1301 15.3537 40.4425 15.3729C37.941 15.4414 35.4392 15.5014 32.9375 15.5625C27.3481 15.7069 21.7587 15.8512 16 16C15.67 29.86 15.34 43.72 15 58C34.14 58 53.28 58 73 58C73 50.74 73 43.48 73 36C74.65 35.34 76.3 34.68 78 34C78.99 34.66 79.98 35.32 81 36C81.3723 38.3667 81.3723 38.3667 81.3633 41.3047C81.3623 42.8922 81.3623 42.8922 81.3613 44.5117C81.3452 45.6216 81.3291 46.7315 81.3125 47.875C81.3157 48.9771 81.3189 50.0793 81.3223 51.2148C81.2598 60.5643 81.2598 60.5643 79 64C75.4133 66.3911 73.836 66.2338 69.582 66.1953C67.7016 66.1856 67.7016 66.1856 65.7832 66.1758C64.4729 66.159 63.1625 66.1423 61.8125 66.125C60.4772 66.115 59.1419 66.1058 57.8066 66.0977C54.5376 66.0741 51.2689 66.0411 48 66C48 68.31 48 70.62 48 73C49.8234 72.9826 49.8234 72.9826 51.6836 72.9648C53.2682 72.9555 54.8529 72.9464 56.4375 72.9375C57.6412 72.9249 57.6412 72.9249 58.8691 72.9121C60.913 72.9035 62.9568 72.9477 65 73C66 74 66 74 66.125 77C66 80 66 80 65 81C61.9092 81.1012 58.8412 81.1397 55.75 81.1328C54.8216 81.1338 53.8931 81.1347 52.9365 81.1357C50.9694 81.1364 49.0023 81.1345 47.0352 81.1304C44.013 81.125 40.9909 81.1303 37.9688 81.1367C36.0625 81.1361 34.1562 81.1348 32.25 81.1328C30.8844 81.1358 30.8844 81.1358 29.4912 81.1389C23.1149 81.1149 23.1149 81.1149 22 80C21.875 77 21.875 77 22 74C23 73 23 73 26.8164 72.9023C28.3985 72.909 29.9805 72.921 31.5625 72.9375C32.3688 72.942 33.1751 72.9465 34.0059 72.9512C36.0039 72.963 38.002 72.9809 40 73C40 70.69 40 68.38 40 66C39.1727 66.0209 38.3455 66.0419 37.4932 66.0635C33.7456 66.1466 29.9982 66.1987 26.25 66.25C24.948 66.2835 23.6461 66.317 22.3047 66.3516C21.0543 66.3645 19.8039 66.3773 18.5156 66.3906C16.7875 66.422 16.7875 66.422 15.0244 66.4541C11.3627 65.9043 10.2579 64.8654 8 62C6.81919 59.6384 6.8548 58.1724 6.823 55.5378C6.80375 54.1508 6.80375 54.1508 6.7841 52.7358C6.77672 51.7337 6.76933 50.7316 6.76172 49.6992C6.75365 48.6707 6.74558 47.6422 6.73726 46.5825C6.72341 44.4027 6.71269 42.223 6.70483 40.0432C6.68762 36.7113 6.64374 33.3804 6.59961 30.0488C6.58948 27.9323 6.58097 25.8158 6.57422 23.6992C6.55671 22.7032 6.5392 21.7072 6.52116 20.6811C6.535 16.2642 6.55546 13.7261 8.90161 9.8938C12.7619 6.40992 16.2497 6.83901 21.2188 6.83203Z" fill="black"/>
<path d="M79 7.15256e-07C82.8892 1.80572 84.5117 3.26748 86.875 6.8125C88.6069 11.7196 88.6315 15.305 86.8125 20.1875C84.4795 23.8076 81.8446 26.0777 78 28C71.5749 28.5445 68.2435 27.8041 63 24C59.529 20.1931 59.5463 16.3075 59.7148 11.3672C60.2362 7.03883 62.2368 4.88251 65 1.6875C69.5793 -0.888352 73.8673 -0.738623 79 7.15256e-07Z" fill="#FF0202"/>
</g>
<defs>
<clipPath id="clip0_9_12">
<rect width="88" height="88" fill="white"/>
</clipPath>
</defs>
</svg>
